<?xml version="1.0" encoding="UTF-8" standalone="no"?>
<svg
   version="1.1"
   class="thumbnail-icon"
   viewBox="-0.0000133514404296875 0.00112152099609375 200.00001525878906 199.99774169921875"
   id="svg146"
   sodipodi:docname="Logo.svg"
   inkscape:version="1.2.2 (732a01da63, 2022-12-09)"
   xmlns:inkscape="http://www.inkscape.org/namespaces/inkscape"
   xmlns:sodipodi="http://sodipodi.sourceforge.net/DTD/sodipodi-0.dtd"
   xmlns="http://www.w3.org/2000/svg"
   xmlns:svg="http://www.w3.org/2000/svg">
  <defs
     id="defs150" />
  <sodipodi:namedview
     id="namedview148"
     pagecolor="#505050"
     bordercolor="#ffffff"
     borderopacity="1"
     inkscape:showpageshadow="0"
     inkscape:pageopacity="0"
     inkscape:pagecheckerboard="1"
     inkscape:deskcolor="#505050"
     showgrid="false"
     inkscape:zoom="2.8496725"
     inkscape:cx="58.603225"
     inkscape:cy="89.483967"
     inkscape:window-width="1920"
     inkscape:window-height="1009"
     inkscape:window-x="-8"
     inkscape:window-y="-8"
     inkscape:window-maximized="1"
     inkscape:current-layer="g144" />
  <g
     data-paper-data="{&quot;fillRule&quot;:&quot;evenodd&quot;,&quot;isIcon&quot;:&quot;true&quot;,&quot;selectedEffects&quot;:{&quot;container&quot;:&quot;&quot;,&quot;transformation&quot;:&quot;&quot;,&quot;pattern&quot;:&quot;&quot;},&quot;iconType&quot;:&quot;icon&quot;,&quot;rawIconId&quot;:&quot;29780&quot;,&quot;combineTerms&quot;:&quot;mario&quot;,&quot;iconStyle&quot;:&quot;standalone&quot;,&quot;bounds&quot;:{&quot;x&quot;:204.03880633938422,&quot;y&quot;:129.9339479265836,&quot;width&quot;:141.92238732123155,&quot;height&quot;:141.92077650221594}}"
     id="g144">
    <path
       d="M187.4956,49.9983v12.49986h12.5044v87.49901h-24.99972v37.50184h-12.49986v12.49986h-125.00085v-12.49986h-12.49986v-37.50184h-24.99972v-87.49674h12.49759v-12.49986h12.49986v-24.99972h12.49986v-12.49986h24.99972v-12.49986h74.99688v12.49759h25.00199v12.49986h12.49986v24.99972zM187.4956,137.49731v-12.49986h0.00227v-12.49986h-24.99972v-12.49986h-12.49986v-37.49957h12.49986v-24.99972h-12.49986v12.49986h-25.00199v-12.49986h-12.49986v-24.99972h-24.99972v24.99972h-12.49986v12.49986h-24.99972v-12.49986h-12.49986v24.99972h12.49986v37.49957h-12.49986v12.49986h-24.99972v24.99972h24.99972v-12.49986h37.49957v-12.49986h-12.49986v-37.49957h12.49986v-12.49986h49.99716v12.49986h12.49986v37.49957h-12.49986v12.49986h37.50184v12.49986zM162.49589,174.99688v-12.49986h0.00227v-12.50213h-12.49986v-12.49986h-25.00199v25.00199h-12.49986v-25.00199h-24.99972v25.00199h-12.49986v-25.00199h-24.99972v12.49986h-12.49986v25.00199h12.49986v12.49986h99.99887v-12.49986z"
       fill-rule="evenodd"
       id="path142"
       style="fill:#ffffff" />
  </g>
</svg>
